<svg id="Layer_1" data-name="Layer 1" xmlns="http://www.w3.org/2000/svg" width="120" height="50" viewBox="0 0 776.69 334.49"><defs><style>.cls-1{fill:#409a3c;}.cls-2{fill:#fff;}.cls-3{fill:#d1a10d;}.cls-4{fill:#231f20;}.cls-5{fill:#ed1c24;}</style></defs><title>TABIAT-</title><path class="cls-1" d="M764.49,167.85a75.84,75.84,0,0,1-5.1-19.48c-1.58-14.57-.59-33.27-.59-33.27H747.11c-6.6,0-9.3-3.6-9.3-10.49V67.14a6.3,6.3,0,0,1-6-3c-1-1.45-1.2-8.39-1.2-8.39H665.88s.59,11.09-6.9,11.09c-4.19,0-50.35-.3-50.35-.3l0,1.23c38.17,27.31,61,61.8,61,99.27,0,38.92-24.64,74.64-65.52,102.42H659c4.8,0,6.9,3.6,6.9,5.4v6h65v-6.59c0-4.5,6.89-4.8,6.89-4.8V237.39c0-13.79,3-15.84,7.2-15.84h14.08s-1.31-15.43,0-28.22c1.39-13.4,5.4-24.86,5.4-25.48M104.91,167c0-37.35,22.68-71.75,60.64-99l-.06-1.49s-46.16.3-50.35.3c-7.5,0-6.9-11.09-6.9-11.09H43.5s-.23,6.94-1.2,8.39a6.3,6.3,0,0,1-6,3v37.47c0,6.89-2.7,10.49-9.3,10.49H15.32s1,18.7-.59,33.27a76.32,76.32,0,0,1-5.1,19.48c0,.62,4,12.08,5.39,25.48,1.32,12.79,0,28.22,0,28.22H29.11c4.2,0,7.2,2,7.2,15.84v32.07s6.89.3,6.89,4.8v6.59h65v-6c0-1.8,2.1-5.4,6.9-5.4h55.3C129.55,241.68,104.91,206,104.91,167"/><path class="cls-2" d="M115.14,263c-8.44,0-13,6.48-13.31,11.39H49.62v-.17c0-4.36-2.53-7.92-6.89-9.82V237.39c0-6.66,0-22.26-13.62-22.26H21.85a164.52,164.52,0,0,0-.44-22.46,140.44,140.44,0,0,0-5-24.52,75.58,75.58,0,0,0,4.74-19.09A224.72,224.72,0,0,0,22,121.52h5c9.84,0,15.72-6.32,15.72-16.91V72.17a13.25,13.25,0,0,0,4.91-4.46c.6-.89,1.3-2.32,1.78-5.53h53.06a16.1,16.1,0,0,0,3.73,7.32,12,12,0,0,0,8.93,3.77c2.31,0,17-.09,43.77-.26,1-.79,2-1.57,3.06-2.35v-.42c-11,.07-43.3.27-46.82.27a9.27,9.27,0,0,1-6.93-2.91,14.77,14.77,0,0,1-3.45-8.18H47c-.43,5-1.29,6.28-1.61,6.76A10.1,10.1,0,0,1,40,70.35v34.26c0,12.32-8.13,14.16-13,14.16H19.14a233,233,0,0,1-.77,30A73.53,73.53,0,0,1,13.47,168h0l.15.54A138.63,138.63,0,0,1,18.67,193,168.15,168.15,0,0,1,19,217.88H29.11c9.55,0,10.87,9.38,10.87,19.51v29c3.73,1.08,6.89,3.67,6.89,7.89v2.92h57.7v-2.32c0-3.8,3.67-9.07,10.57-9.07h50q-1.89-1.37-3.73-2.75Zm645.51-95a73.53,73.53,0,0,1-4.9-19.24,235.1,235.1,0,0,1-.78-30h-7.86c-4.84,0-13-1.84-13-14.16V70.35a10.1,10.1,0,0,1-5.37-4.17c-.32-.48-1.18-1.76-1.61-6.76h-57.8a14.77,14.77,0,0,1-3.45,8.18A9.26,9.26,0,0,1,659,70.51c-3.52,0-35.84-.2-46.82-.27v.15q1.74,1.31,3.43,2.62c26.48.17,41.09.26,43.39.26a12,12,0,0,0,8.93-3.77,16.1,16.1,0,0,0,3.73-7.32H724.7c.48,3.21,1.18,4.64,1.78,5.53a13.25,13.25,0,0,0,4.91,4.46v32.44c0,10.59,5.88,16.91,15.72,16.91h5a224.72,224.72,0,0,0,.87,27.54,75.58,75.58,0,0,0,4.74,19.09,140.44,140.44,0,0,0-5,24.52,164.52,164.52,0,0,0-.44,22.46H745c-13.62,0-13.62,15.6-13.62,22.26v27.05c-4.36,1.9-6.89,5.46-6.89,9.82v.17H672.29C672,269.52,667.42,263,659,263H613q-1.83,1.38-3.72,2.75H659c6.9,0,10.57,5.27,10.57,9.07v2.32h57.7v-2.92c0-4.22,3.16-6.81,6.89-7.89v-29c0-10.13,1.32-19.51,10.87-19.51h10.16a169.33,169.33,0,0,1,.27-24.93,139.33,139.33,0,0,1,5.06-24.39l.15-.54h0"/><path class="cls-3" d="M173,269.46H115.14c-4.8,0-6.9,3.6-6.9,5.4v6h-65v-6.59c0-4.5-6.89-4.8-6.89-4.8V237.39c0-13.79-3-15.84-7.2-15.84H15s1.32-15.43,0-28.22c-1.37-13.4-5.39-24.86-5.39-25.48a76.32,76.32,0,0,0,5.1-19.48c1.58-14.58.59-33.27.59-33.27H27c6.6,0,9.3-3.6,9.3-10.49V67.14a6.3,6.3,0,0,0,6-3c1-1.45,1.2-8.39,1.2-8.39h64.74s-.6,11.09,6.9,11.09c3.9,0,44.2-.26,49.73-.29l15.61-6h-65V49.76H38.7V61.14H30.91v47.67H9.63s1.2,15.88,1.2,31.77S4.23,159.76,4.23,167s6.6,20.38,6.6,37.17V227.5H30.61v48H38.7v11.39h76.14V275.46h73.22Zm417.19,6h69.1v11.39h76.13V275.46h8.1v-48h19.78V204.12c0-16.79,6.6-30,6.6-37.17s-6.6-10.49-6.6-26.37,1.2-31.77,1.2-31.77H743.21V61.14h-7.8V49.76H658.68V60.54h-65l15,6s46.16.3,50.35.3c7.49,0,6.9-11.09,6.9-11.09h64.74s.23,6.94,1.2,8.39a6.3,6.3,0,0,0,6,3v37.47c0,6.89,2.7,10.49,9.3,10.49H758.8s-1,18.69.59,33.27a75.84,75.84,0,0,0,5.1,19.48c0,.62-4,12.08-5.4,25.48-1.31,12.79,0,28.22,0,28.22H745c-4.2,0-7.2,2-7.2,15.84v32.07s-6.89.3-6.89,4.8v6.59h-65v-6c0-1.8-2.1-5.4-6.9-5.4H601.13Z"/><path class="cls-2" d="M387.25,326c-155,0-281.14-71.32-281.14-159s126.12-159,281.14-159S668.39,79.37,668.39,167,542.27,326,387.25,326"/><path class="cls-4" d="M639.38,165.51c-.65-21-14.78-36.86-32.87-36.86a33.77,33.77,0,0,0-10.21,1.64c.44-4.15.79-8.11,1-11.88.36-7.14.46-14.61.43-21.26,0-11.45-.38-21-.43-22.5a8.22,8.22,0,0,0-8.14-7.74,9.05,9.05,0,0,0-3.52.78c-1.81.69-7.27,2.83-9.38,3.47-3.15,1-12.87,3.23-16.31,4A8.15,8.15,0,0,0,553.65,84c0,.3.09.73.12,1.23a6.89,6.89,0,0,0-.12,1.44c.3,3.12,1.84,19.76,1.82,39.73a251.46,251.46,0,0,1-3,39,11,11,0,0,0-9.68-5.15c-4.3,0-8.5,2.19-13.28,6.87l-2.63,2.54c-9.23,9.1-20.66,20.31-28.39,21.4.29-.86.65-1.83,1.25-3.21,1.83-4.18,4.07-9.38,3.61-14.22a11.47,11.47,0,0,0-3.47-9.9,19.88,19.88,0,0,0-13.75-5.27c-7.09,0-14,3.48-17.24,8.7l-.6,1c-4.34,7.11-15.34,21.31-18.13,19.63-2.57-1.55,18.83-15.08,18.83-31.57,0-.4-.12-.77-.13-1.16s.13-1,.13-1.5c0-15.06-12.58-24.43-32.87-24.43-19,0-43.11,7.76-64.53,20.78a19,19,0,0,0-9.36,13.69,9.87,9.87,0,0,0-4.74-1.16,12.9,12.9,0,0,0-7.77,2.84,15,15,0,0,0-1.37,1.2c-12.42,11.28-36.82,18.23-55.06,22.12-16.23,3.41-37.5,5.47-57,5.47-11.88,0-22.27-.78-29.94-2.24-22-4.19-29.46-11.22-30.68-14.86.9-3.09,4.67-7.5,13.25-12.54,6.74-4,16.29-7.7,31.39-12.18a22.82,22.82,0,0,0,0,2.74c-.25,4.49.62,8.21,2.68,11.18,1.58,2.32,5.39,6.23,13.18,6.23,5.86,0,17.82-1.81,30.2-5.75,4.27-1.37,8.85-2.89,13.69-4.53l2-.66c28.41-9.54,63.77-21.39,98-23.1,1.89-.09,4.24-.22,5.93-2.13,1.31-1.46,1.83-3.52,1.62-6.47,0-.16-.13-.37-.15-.54a11.69,11.69,0,0,0,.15-2.12c-.46-6.46-12.59-23.44-37.21-23.44a58.69,58.69,0,0,0-8.9.69c-11,1.62-25,5.14-38.78,8.62-21.77,5.43-46.42,11.63-63.37,11.63l-2.3,0a9.73,9.73,0,0,0-6.8,2.91c-8.11.68-59.42,5.91-83.46,33.11a47.29,47.29,0,0,0-12.16,35.54,1.7,1.7,0,0,0,.06.31c0,.8-.12,1.54-.06,2.35,1,15.59,20.49,28.74,31.87,34.05,12.27,5.73,27.05,8.4,46.56,8.4,11.17,0,23.51-.89,34.17-1.7a365.23,365.23,0,0,0,83.31-16.84,17.13,17.13,0,0,0,4.44,9.62c3.45,3.58,8.55,5.4,16,5.4h.12c8.87-.22,19.89-4.88,29.64-9l5.76-2.41c4.85-2,9.58-4,13.69-5.68l1-.44c2.56-1.08,5.21-2.2,7.37-3.06,4.11,6.07,11.57,16.16,23.65,19.64-.43,0-.82-.12-1.25-.12a24.85,24.85,0,0,0-13.44,3.9,24.81,24.81,0,0,0-13.42-3.9,25.3,25.3,0,0,0-25.27,25.26c0,.46.11.88.13,1.34s-.13.86-.13,1.33a25.32,25.32,0,0,0,25.27,25.3,24.89,24.89,0,0,0,13.42-3.9,24.93,24.93,0,0,0,13.44,3.9,25.32,25.32,0,0,0,25.27-25.3c0-.47-.12-.89-.13-1.33s.13-.88.13-1.34a25.24,25.24,0,0,0-18-24.07c.84.08,1.65.26,2.54.26,9.89,0,19.44-4.38,29.11-13.4,2.14,6.49,6.09,10.7,11.38,12.86a25.24,25.24,0,0,0-18.92,24.35c0,.46.1.88.14,1.34s-.14.86-.14,1.33a25.29,25.29,0,1,0,50.57,0c0-.47-.12-.89-.13-1.33s.13-.88.13-1.34a25.3,25.3,0,0,0-15.38-23.24c7-1,14.83-3.32,21.07-7.73s11.22-9.67,15.84-14.53a7.31,7.31,0,0,0-.08,3.05,7.9,7.9,0,0,0,4.1,8.47L552.28,235a7.77,7.77,0,0,0,3.77.93,8.09,8.09,0,0,0,6.89-3.81l1.11-1.8a33.45,33.45,0,0,0,16.64,4.34c9.06,0,18.48-3.38,28-10,13.27-9.22,31.3-34,30.65-56.44,0-.34-.11-.66-.13-1,0-.55.14-1.09.13-1.64m-185.81,96.3A22.6,22.6,0,0,1,431,284.4a22.14,22.14,0,0,1-13.44-4.5,22.09,22.09,0,0,1-13.42,4.5,22.57,22.57,0,0,1,0-45.14,22.21,22.21,0,0,1,13.42,4.49A22.26,22.26,0,0,1,431,239.26a22.59,22.59,0,0,1,22.55,22.55m56.73,0a22.58,22.58,0,1,1-22.56-22.55,22.62,22.62,0,0,1,22.56,22.55m96.87-42.08c-9.09,6.35-18,9.54-26.48,9.54a30.88,30.88,0,0,1-17.5-5.36l-2.55,4.1a5.5,5.5,0,0,1-4.59,2.54,5.37,5.37,0,0,1-2.52-.62l-13.72-7.16a5.38,5.38,0,0,1-2.52-6.82s2.52-6.25,3.78-8.76a6.68,6.68,0,0,0-.63-3.33,70.82,70.82,0,0,0-6.5,6.47c-4.54,4.85-10.18,10.9-16.84,15.65-8.17,5.78-19.44,7.86-27.28,7.86-12.75,0-16.95-9.32-18.4-17.12-6.88,7.16-17.42,15.91-30.56,15.91-16.66,0-26.11-14-30.65-20.71a6.44,6.44,0,0,0-.59-.88c-2.48,1-6.39,2.65-10,4.14-4.22,1.79-9.08,3.83-14.15,5.88-10.7,4.35-24.32,11-34.41,11.22-17.55.41-18.13-12.28-18-16a360.77,360.77,0,0,1-86,17.83c-10.6.81-22.85,1.69-34,1.69-19,0-33.49-2.59-45.39-8.14-11.28-5.27-29.38-17.92-30.28-31.77C133.82,142,214.82,131,231.5,130a7.21,7.21,0,0,1,5.54-2.82l2.29.05c17.38,0,42.3-6.27,64.32-11.79,14.19-3.56,27.56-6.9,38.24-8.49a56.68,56.68,0,0,1,8.51-.66c23.39,0,34.17,16.05,34.51,20.9.37,5.6-2.31,5.57-5.25,5.74-34.23,1.7-69.82,13.63-98.42,23.21-5.59,1.87-10.84,3.65-15.69,5.17-12.13,3.89-23.76,5.64-29.39,5.64-6.13,0-9.35-2.75-10.95-5.06-3.19-4.61-2.54-10.91-1.1-16.31-15.8,4.53-28.13,8.82-36.54,13.77-10.25,6-15.64,12.38-14.77,17.42.94,5.4,10.14,13.28,33.06,17.66,7.77,1.46,18.33,2.26,30.45,2.26,19.67,0,41.13-2.07,57.52-5.52,18.58-3.95,43.44-11.09,56.32-22.77.54-.49,1-.85,1.24-1.07a10.15,10.15,0,0,1,6.1-2.27,7.51,7.51,0,0,1,6.31,3.43c3.36,5,1.62,14.14-.3,18.69a42.47,42.47,0,0,0-2.41,6.87h.1c3.06,0,8.22-.92,15-2.31,5.45-1.11,8.14-2.18,9.39-2.85-1.07-1.16-3.58-3.29-9.39-7-9.48-6-11.41-12.27-11.39-16.53.06-5.22,3.09-10.19,8.16-13.26,21-12.75,44.61-20.38,63.12-20.38,18.89,0,30.16,8.11,30.16,21.73,0,16.17-10.71,24.15-19.32,30.61-2.89,2.13-5.27,4.51-7.54,6.21s-3.06,5.8,1.57,4.57c14.71-4,23.25-14.94,29.63-25.37l.56-1c2.77-4.44,8.8-7.4,14.95-7.4A17.09,17.09,0,0,1,498,165.69c5.19,4.89,2,12.1-.74,18.43-1.15,2.62-4.15,9.17.09,9.19,9.37,0,21.08-11.54,31.45-21.73l2.61-2.57c4.22-4.14,7.84-6.07,11.37-6.07,6.87,0,9.34,6,10.31,12.71,9-36,3.29-91.35,3.23-92a5.44,5.44,0,0,1,4.23-5.86c3.5-.78,13.26-3,16.54-4.05C579.63,73,587.18,70,587.2,70a5.28,5.28,0,0,1,1.95-.38,5.45,5.45,0,0,1,5.43,5.16c0,.89,1,22.1,0,40.84-.37,7.06-1.14,13.69-1.82,18.9a32.91,32.91,0,0,1,13.75-3.14c16.57,0,29.56,14.69,30.16,34.22.64,21.49-16.72,45.26-29.5,54.14M366,190.9a32.38,32.38,0,0,0,2.27-9.15,35.46,35.46,0,0,0,6.52,5.15c1.06.67,2,1.25,2.79,1.8l-1.88.42c-3.43.7-6.82,1.34-9.7,1.78"/><path class="cls-1" d="M311.35,27.59C282.71,57.13,272.88,45.49,255.88,58c-27.69,20.39-25.11,58.13-23.89,57.89,88.62-18.21,79.36-88.32,79.36-88.32"/><path class="cls-5" d="M431,244.67a17.11,17.11,0,0,0-13.44,6.6,17.17,17.17,0,1,0,0,21.12A17.13,17.13,0,1,0,431,244.67m154.87-99.51c-.55.44,2.41-13.41,3.28-29.84,1-18.69,0-40.29,0-40.29s-7.83,3.07-10.42,3.88c-4.23,1.33-17,4.18-17,4.18s8.08,76.08-9.25,110.39c-.42.86-3.27,4.19-3.88-5.95s-.29-27.46-13.44-14.63-28,28.64-41.45,25.37,6.24-23.28.58-28.63-15.51-3-18.51,1.78-17.59,30.73-38.5,28.64c-8.26-.84-7.19-7.66-1.76-13.42,8.23-8.79,25.35-14.62,25.35-33.13,0-23.28-44.75-21.19-85.05,3.28-5.64,3.43-10.27,12.05,3.29,20.6,13.73,8.66,20.29,15.21-1.79,19.69s-25.37,3.87-18.8-12c2.67-6.44,3-18.49-3.88-13.43-2.06,1.53-13.13,14.94-59.68,24.78-27.82,5.89-68,7.51-90.12,3.29-38.61-7.37-51.17-26.75-20-45.07,10.51-6.17,26.39-11.22,47.43-17,1.3-.36-11.94,23.87,3.88,23.87,4.66,0,15.61-1.51,27.76-5.38,29.14-9.27,73.56-26.54,115.48-28.64,1.23-.06-8.66-19.4-36.7-15.22S266,133.52,237.05,132.61c-1.33,0-2.37,2.7-2.37,2.7s-91.9,2.39-91.9,60.57c0,10.21,15.67,21.5,27.14,26.87,20.48,9.55,46.06,8.3,76.69,6,50.11-3.83,92.12-20,92.79-20.6,1.49-1.18-6.24,17.92,6.86,19.11s62.4-22.67,65.06-22.38,10.76,22.38,29.54,22.38,32.83-22.67,34.63-22.67-3,23.86,14.33,23.86c6.44,0,16.75-1.61,24.17-6.87,12.47-8.83,21.64-23.27,25.93-23.27,6.87,0,7.18,8.94,6,11.35s-3.61,8.34-3.61,8.34l13.74,7.17,6-9.55c.58,1.19,15.5,18.2,42.06-.3,12-8.33,27.71-30.85,27.15-49.53-.68-22.76-21.1-39.94-45.36-20.59M408,182.75s-3-9.24-4.48-9.56,17-8.95,18.21-4.46-7.47,12.83-13.73,14m188.29,9.56c-6.92,4.39-17.76,6.27-25.64,5.06,0,0,14.61-38.8,34.3-26.25,5.91,3.73,1.65,14.61-8.66,21.19M487.72,244.67a17.17,17.17,0,1,0,17.16,17.16,17.16,17.16,0,0,0-17.16-17.16"/><path class="cls-3" d="M242.87,116.36c-1.45.27,75.36-.9,71.34-73.41,0,0-2,60.27-71.34,73.41M387.25,4.71C230.12,4.71,102.76,77.38,102.76,167S230.12,329.38,387.25,329.38,671.73,256.69,671.73,167,544.37,4.71,387.25,4.71m0,317.89c-148.34,0-268.57-70-268.57-156.36S238.91,9.88,387.25,9.88s268.56,70,268.56,156.36S535.56,322.6,387.25,322.6"/><path class="cls-3" d="M737,169.64c-5.92,1.3-19.34,4.91-20.49,20.06a37.2,37.2,0,0,1,16.88-5.34S737.19,172,737,169.64m-17.17,7.07s7.79-7.79,14.72-9.09c3-12.7,1.15-17,1.15-17s-19.63,8.23-15.87,26.12m.86-16.45s8.37-9.52,13.71-11.26c.44-10.1-2.16-16-2.16-16s-17,10.68-11.55,27.28m-21.79,55.57c-.44-3.61-7.07-17.47-7.07-17.47s-1.16,2-4.91,8.37c1.44,2.46,3.61,15,3.61,15a45.31,45.31,0,0,1,8.37-5.91m19.77-38c-1.73-3-14-12.41-14-12.41l-.29,9.81s4.77,3.18,10.25,12.27c0-4.19,4-9.67,4-9.67m-11.4,26.55c-1.44-5.91-9.09-15.29-9.09-15.29s-.87,2.16-3.61,9.52c1,2.6,5.2,14.14,5.2,14.14s1.73-3.17,7.5-8.37m7.36-13.56c-1-4.62-11.69-14-11.69-14l-2.45,11.69a75.41,75.41,0,0,1,7.5,12c.43-3.61,6.64-9.67,6.64-9.67m4.76-44.6s4.48-9.67,10.54-14.14c-2.45-12.27-5.63-15.16-5.63-15.16s-15.44,15.3-4.91,29.3m-42-57.33c3,1.95,18.83,12.77,29.44,24.36l.76-2.28S689.92,93.69,676.5,85.9c-3.68-1.62-2.06,1.08,1,3m36.91,43.62s2.31-10,7.79-16c-5.48-11.69-7.79-14.57-7.79-14.57s-12.55,16.59,0,30.59m-44.16-43c5,2.38,23.6,14.4,36.26,28.79v-2.7s-17.86-19-34.42-27.71c-5.09-2.82-6.82-.76-1.84,1.62m13.2-1.52c4.34,2.71,19.81,15.27,24.9,20.79l.87-2.06s-16.56-14.5-21.11-18-7.15-4.87-7.69-4.54-1.3,1.08,3,3.78m5.31-1.51c3.79,3,20.78,17,21.43,18.62l.76-2.28s-16.13-14.5-19-16.56-6.93-2.81-3.14.22m6.82.22c3.89,3,16.34,14.28,16.34,14.28l1.19-2s-14-12.44-17.53-15.26-3.9-.1,0,2.93m-11.47,13.85c-8-5.74-13.75-9.74-14.83-9s.32,1.94,2.7,3.46,17.21,11,28.9,23.16l2.49-.43s-11.26-11.47-19.26-17.21m6.49,127.47c-.15,6.21-8.66,13.28-8.66,13.28,14.58,3.75,27.28-11.26,27.28-11.26s-9.1-5.77-18.62-2M673.36,110.9c2.27,1.74,11.58,8.66,11.58,8.66h2.6s-11.8-10-14.07-11-2.39.65-.11,2.38m2.49,128.6s-10,6.54-33.29,8.83l.27,3.74c11.77-1.45,25.32-4.23,35.76-9.54a14.52,14.52,0,0,0-2.74-3m25-97.28a27.32,27.32,0,0,1,4.05,10l13.27,7.5s-1.29-7.21.29-11.54a53.38,53.38,0,0,0-17.61-5.92m-10.39,83.85c7.36-2,19.35,1.74,19.35,1.74s.42-.29,8.8-10.68c-22.08-5.49-28.15,8.94-28.15,8.94m19.05-22.66s9.67-3.46,18-2.74c6.49-12,6.63-14.58,6.63-14.58s-21.36-.14-24.68,17.32m-1.73,3.47a39.31,39.31,0,0,0-6.49,7.79s11.54-.86,19.19.29c7.36-11.11,7.36-11.83,7.36-11.83s-15.44-.73-20.06,3.75m-22.94.29s-1.3,2.6-8.38,12,3,21.21,3,21.21c16.88-10.1,5.34-33.19,5.34-33.19M674.12,101.38c4.43,3.14,21.43,17,21.43,17h2.6c-2.06-2.05-15.7-13.64-19.81-16.56s-6.93-5.52-7.69-4.87-1,1.3,3.47,4.44m30.45,62.06s11.69,8.08,12.85,9.67c0,0,.43-5.78,2.45-9.82-4.77-5.34-17.32-9.23-17.32-9.23Zm-27.75-57.62c-3.25-2.38-4.65-2.93-5-2.38s.87,1.94,3.57,3.78,11.69,9.85,14.4,11.8h2.82s-12.56-10.82-15.81-13.2m19.09,26L701,140.2a106.47,106.47,0,0,1,14.87,4c-1.45-3.46-1.74-10.24-1.74-10.24-5.48-2.46-18.18-2.17-18.18-2.17m-7.8-9.81,7.08,7.5s9.09.58,15.15,1.44c-1.73-2.45-3.61-9.67-3.61-9.67-4.9-1.15-18.62.73-18.62.73m-617.48-.73S68.76,128.51,67,131c6.06-.86,15.15-1.44,15.15-1.44l7.07-7.5s-13.71-1.88-18.62-.73m34.9-17.85c-.33-.55-1.74,0-5,2.38S84.74,119,84.74,119h2.82c2.7-2,11.69-10,14.39-11.8s3.9-3.24,3.58-3.78M70.89,115.67v2.7C83.55,104,102.17,92,107.15,89.58s3.25-4.44-1.84-1.62c-16.56,8.66-34.42,27.71-34.42,27.71m35.83-18.73c-.76-.65-3.58,2-7.69,4.87s-17.75,14.51-19.81,16.56h2.6s17-13.85,21.43-17,4.22-3.79,3.47-4.44M57.5,176.71c3.75-17.89-15.87-26.12-15.87-26.12s-1.88,4.33,1.15,17c6.93,1.3,14.72,9.09,14.72,9.09m10.39,26.7C64.57,186,43.21,186.09,43.21,186.09s.15,2.6,6.64,14.58c8.37-.72,18,2.74,18,2.74M60.82,189.7c-1.15-15.15-14.58-18.76-20.49-20.06-.15,2.31,3.6,14.72,3.6,14.72a37.21,37.21,0,0,1,16.89,5.34m-4.18-29.44C62.12,143.66,45.09,133,45.09,133s-2.6,5.92-2.16,16c5.33,1.74,13.71,11.26,13.71,11.26M81.82,86.77c3.9-3,3.57-5.74,0-2.93S64.28,99.1,64.28,99.1l1.2,2S77.92,89.8,81.82,86.77M63,102s-2.31,2.88-7.8,14.57c5.49,6.06,7.8,16,7.8,16,12.55-14,0-30.59,0-30.59m-5.05,44.3C68.47,132.26,53,117,53,117s-3.18,2.89-5.63,15.16c6.06,4.47,10.54,14.14,10.54,14.14m43,72.89c-7.07-9.38-8.37-12-8.37-12S81,230.26,97.91,240.36c0,0,10.1-11.83,3-21.21m-2.16,23.38c10.44,5.31,24,8.09,35.76,9.54l.27-3.74c-23.33-2.29-33.29-8.83-33.29-8.83a14.52,14.52,0,0,0-2.74,3m-12-14.44c-9.53-3.75-18.62,2-18.62,2s12.7,15,27.28,11.26c0,0-8.52-7.07-8.66-13.28m.14-2s-6.06-14.43-28.14-8.94c8.37,10.39,8.8,10.68,8.8,10.68s12-3.76,19.34-1.74m-10.82-11.4a39.31,39.31,0,0,0-6.49-7.79c-4.62-4.48-20.07-3.75-20.07-3.75s0,.72,7.36,11.83c7.65-1.15,19.2-.29,19.2-.29M104,110.9c2.27-1.73,2.16-3.46-.11-2.38s-14.07,11-14.07,11h2.6s9.31-6.92,11.58-8.66M72.94,175.27l-.28-9.81s-12.27,9.38-14,12.41c0,0,4,5.48,4,9.67,5.48-9.09,10.24-12.27,10.24-12.27m-3.6,25.26a75.41,75.41,0,0,1,7.5-12l-2.45-11.69s-10.68,9.38-11.69,14c0,0,6.2,6.06,6.64,9.67m8.22,12.26s4.19-11.54,5.2-14.14c-2.74-7.36-3.61-9.52-3.61-9.52s-7.65,9.38-9.09,15.29c5.77,5.2,7.5,8.37,7.5,8.37M59.23,159.68l13.28-7.5a27.4,27.4,0,0,1,4-10A53.27,53.27,0,0,0,59,148.14c1.58,4.33.28,11.54.28,11.54m-1.73,3.61c2,4,2.45,9.82,2.45,9.82,1.16-1.59,12.85-9.67,12.85-9.67l2-9.38S62.26,158,57.5,163.29m10.68-56.5.87,2.06c5.09-5.52,20.56-18.08,24.89-20.79s3.57-3.46,3-3.78-3.13,1.08-7.68,4.54-21.11,18-21.11,18m-1-1.62c.65-1.63,17.64-15.59,21.43-18.62s-.22-2.27-3.14-.22-19,16.56-19,16.56Zm3.25,8.12C81.06,101.7,96.87,90.88,99.9,88.93s4.65-4.65,1-3C87.45,93.69,69.7,111,69.7,111Zm-8.92,31a106.47,106.47,0,0,1,14.87-4l5-8.37s-12.7-.29-18.18,2.17c0,0-.29,6.78-1.74,10.24m46.58-52.6c-1.08-.76-6.82,3.24-14.83,9S74,117.83,74,117.83l2.49.43C88.21,106.14,103,96.62,105.42,95.1s3.78-2.71,2.7-3.46M90.41,206.73c-3.75-6.35-4.91-8.37-4.91-8.37s-6.64,13.86-7.07,17.47a45.31,45.31,0,0,1,8.37,5.91s2.16-12.55,3.61-15"/></svg>